<?xml version="1.0" standalone="no"?>
<!DOCTYPE svg PUBLIC "-//W3C//DTD SVG 20010904//EN"
 "http://www.w3.org/TR/2001/REC-SVG-20010904/DTD/svg10.dtd">
<svg version="1.0" xmlns="http://www.w3.org/2000/svg"
 width="900.000000pt" height="900.000000pt" viewBox="0 0 900.000000 900.000000"
 preserveAspectRatio="xMidYMid meet">
<metadata>
Created by potrace 1.10, written by Peter Selinger 2001-2011
</metadata>
<g transform="translate(0.000000,900.000000) scale(0.100000,-0.100000)"
fill="#000000" stroke="none">
<path d="M4355 8693 c-60 -6 -160 -39 -243 -79 -67 -32 -213 -137 -402 -289
-42 -33 -124 -98 -184 -145 -177 -138 -320 -251 -341 -269 -11 -9 -38 -30 -60
-46 -22 -17 -49 -37 -60 -46 -66 -54 -189 -151 -245 -194 -36 -27 -70 -54 -76
-60 -7 -5 -38 -30 -70 -55 -32 -25 -105 -82 -163 -128 -58 -46 -153 -120 -211
-166 -235 -184 -351 -275 -460 -361 -156 -123 -173 -136 -265 -207 -44 -34
-94 -73 -111 -87 -17 -14 -47 -39 -67 -54 -20 -16 -63 -50 -96 -75 -33 -26
-97 -76 -143 -112 -46 -35 -88 -69 -94 -75 -6 -5 -45 -36 -85 -67 -41 -31 -94
-73 -119 -92 -25 -20 -99 -78 -165 -129 -65 -50 -148 -121 -182 -156 -76 -77
-114 -133 -175 -255 -17 -33 -38 -109 -53 -191 -13 -68 -15 -384 -15 -2184 0
-1428 3 -2125 11 -2170 18 -116 59 -227 123 -339 43 -74 186 -217 258 -257
124 -70 222 -106 339 -124 43 -7 379 -11 951 -11 1038 0 1037 0 1224 91 176
85 333 255 406 437 67 167 68 183 68 1027 l0 760 24 50 c41 89 117 144 225
165 69 13 1095 13 1175 0 112 -18 190 -73 232 -165 l24 -50 0 -765 c1 -698 2
-773 19 -855 37 -184 117 -331 246 -454 139 -131 263 -194 455 -226 70 -12
244 -15 974 -15 576 0 912 4 955 11 117 18 215 54 339 124 72 40 215 183 258
257 64 112 105 223 123 339 8 45 11 741 11 2165 0 1786 -3 2112 -15 2184 -19
113 -35 160 -85 255 -66 126 -130 198 -285 319 -116 92 -171 135 -300 238 -44
35 -125 98 -180 141 -158 122 -228 177 -250 195 -22 19 -255 202 -341 268 -30
23 -73 57 -95 75 -51 42 -177 141 -329 259 -63 49 -167 130 -230 180 -63 50
-151 119 -195 153 -44 33 -82 64 -85 67 -3 3 -65 53 -139 111 -73 57 -161 126
-195 152 -33 26 -83 65 -111 87 -46 36 -105 82 -309 243 -43 34 -93 73 -111
87 -18 14 -81 63 -140 110 -451 357 -529 397 -785 404 -74 2 -153 2 -175 -1z
m221 -563 c55 -19 84 -39 314 -220 63 -50 158 -124 210 -165 52 -41 147 -115
210 -165 63 -50 158 -124 210 -165 52 -41 136 -108 187 -147 51 -40 145 -115
210 -165 65 -51 138 -109 163 -129 25 -19 78 -61 119 -92 40 -31 79 -62 85
-67 6 -6 48 -40 94 -75 89 -69 180 -140 238 -187 173 -136 270 -212 328 -257
28 -22 92 -71 141 -111 50 -39 144 -113 210 -165 66 -52 163 -128 216 -170 52
-41 153 -120 223 -175 71 -55 134 -105 140 -110 6 -6 29 -24 51 -40 125 -94
176 -148 203 -218 l22 -59 0 -2083 0 -2083 -22 -59 c-30 -77 -94 -141 -171
-171 l-59 -22 -878 0 -878 0 -58 22 c-69 27 -134 88 -163 154 -21 46 -21 61
-21 809 0 722 -1 768 -20 856 -11 52 -26 112 -34 134 -93 253 -298 446 -559
525 -110 33 -250 40 -797 40 -550 0 -687 -7 -799 -41 -145 -44 -294 -137 -385
-241 -59 -67 -136 -181 -136 -201 0 -9 -4 -18 -9 -21 -12 -8 -47 -120 -65
-210 -14 -67 -16 -186 -16 -841 0 -753 0 -763 -21 -810 -30 -67 -92 -126 -162
-153 l-59 -22 -878 0 -878 0 -59 22 c-77 30 -141 94 -171 171 l-22 59 0 2083
0 2083 22 59 c23 59 75 120 152 178 56 43 137 106 471 370 50 39 119 93 155
120 36 27 67 52 70 55 5 6 145 117 310 245 198 153 345 269 350 275 3 3 41 34
85 68 95 73 320 249 425 332 112 89 476 376 536 422 34 26 204 160 398 313 56
44 151 118 211 165 59 47 142 112 184 145 129 103 147 115 202 135 69 25 106
25 175 0z"/>
</g>
</svg>
